# xmcd
#
# Track frame offsets:
#	150
#	38762
#	65449
#	149819
#	169147
#	198715
#	220064
#	265349
#	279146
#
# Disc length: 3956 seconds
#
# Revision: 0
# Processed by: cddbd v1.5.2PL0 Copyright (c) Steve Scherf et al.
# Submitted via: EasyCDDAExtractor 11.5.0.1
#
DISCID=8d0f7209
DTITLE=Piotr Płecha
DYEAR=1900
DGENRE=
TTITLE0=Modlitwa do Ducha Swietego
TTITLE1=Twoje Slowo
TTITLE2=Zeslij deszcz
TTITLE3=Pochodnia
TTITLE4=Wznies wzrok
TTITLE5=Dziekujemy
TTITLE6=Wywyzszony
TTITLE7=Glosolalie
TTITLE8=Proroctwo
EXTD=
EXTT0=
EXTT1=
EXTT2=
EXTT3=
EXTT4=
EXTT5=
EXTT6=
EXTT7=
EXTT8=
PLAYORDER=
